# xmcd CD database file
#
# Track frame offsets:
#	150
#	13172
#	26190
#	40202
#	52666
#	66632
#	80437
#	93547
#	106501
#	121469
#	134714
#	148387
#	163961
#	179095
#
# Disc length: 2639 seconds
#
# Revision: 0
# Processed by: cddbd v1.5.1PL0 Copyright (c) Steve Scherf et al.
# Submitted via: CDex 1.51
#
DISCID=d30a4d0e
DTITLE=Billie Holiday - I Grandi del Jazz
DYEAR=1979
DGENRE=Jazz
TTITLE0=Without Your Love
TTITLE1=When You're Smiling
TTITLE2=On the Sentimental Side
TTITLE3=Dream of Life
TTITLE4=Long Gone Blues
TTITLE5=Some Other Spring
TTITLE6=Laughing at Life
TTITLE7=Am I Blue?
TTITLE8=Love Me Or Leave Me
TTITLE9=For All We Know
TTITLE10=I Get Along With You Very Well
TTITLE11=Violets For Your Furs
TTITLE12=You've Changed
TTITLE13=Glad to Be Unhappy
EXTD=YEAR: 1979
EXTT0=
EXTT1=
EXTT2=
EXTT3=
EXTT4=
EXTT5=
EXTT6=
EXTT7=
EXTT8=
EXTT9=
EXTT10=
EXTT11=
EXTT12=
EXTT13=
PLAYORDER=
